<?xml version="1.0" encoding="UTF-8" standalone="no"?>
<svg
   xmlns:dc="http://purl.org/dc/elements/1.1/"
   xmlns:cc="http://creativecommons.org/ns#"
   xmlns:rdf="http://www.w3.org/1999/02/22-rdf-syntax-ns#"
   xmlns:svg="http://www.w3.org/2000/svg"
   xmlns="http://www.w3.org/2000/svg"
   xmlns:sodipodi="http://sodipodi.sourceforge.net/DTD/sodipodi-0.dtd"
   xmlns:inkscape="http://www.inkscape.org/namespaces/inkscape"
   width="191mm"
   height="50mm"
   viewBox="0 0 191 50"
   version="1.1"
   id="svg8"
   inkscape:version="1.0beta2 (2b71d25, 2019-12-03)"
   sodipodi:docname="logo_download.svg">
  <defs
     id="defs2">
    <rect
       x="57.443874"
       y="8.9821587"
       width="165.36243"
       height="31.87709"
       id="rect854" />
    <rect
       x="56.631943"
       y="11.108573"
       width="128.29314"
       height="22.652777"
       id="rect835" />
  </defs>
  <sodipodi:namedview
     id="base"
     pagecolor="#ffffff"
     bordercolor="#666666"
     borderopacity="1.0"
     inkscape:pageopacity="0.0"
     inkscape:pageshadow="2"
     inkscape:zoom="1.1487379"
     inkscape:cx="255.59494"
     inkscape:cy="26.377895"
     inkscape:document-units="mm"
     inkscape:current-layer="text833"
     inkscape:document-rotation="0"
     showgrid="false"
     inkscape:showpageshadow="false"
     inkscape:snap-text-baseline="false"
     inkscape:snap-global="false"
     inkscape:window-width="1600"
     inkscape:window-height="880"
     inkscape:window-x="14"
     inkscape:window-y="23"
     inkscape:window-maximized="0" />
  <metadata
     id="metadata5">
    <rdf:RDF>
      <cc:Work
         rdf:about="">
        <dc:format>image/svg+xml</dc:format>
        <dc:type
           rdf:resource="http://purl.org/dc/dcmitype/StillImage" />
        <dc:title></dc:title>
      </cc:Work>
    </rdf:RDF>
  </metadata>
  <g
     inkscape:label="Layer 1"
     inkscape:groupmode="layer"
     id="layer1">
    <g
       style="font-style:normal;font-weight:normal;font-size:20px;line-height:1.25;font-family:sans-serif;white-space:pre;shape-inside:url(#rect835);fill:#000000;fill-opacity:1;stroke:none;stroke-width:1.08125"
       id="text833"
       transform="matrix(0.92485325,0,0,0.92485325,-16.505441,4.3607099)"
       aria-label="USB DRIVE">
      <text
         xml:space="preserve"
         id="text852"
         style="font-style:normal;font-variant:normal;font-weight:normal;font-stretch:normal;font-size:27.03130000000000166px;line-height:1.25;font-family:Arial;-inkscape-font-specification:Arial;white-space:pre;shape-inside:url(#rect854);fill:#0d0d0d;fill-opacity:1;stroke:none;"
         transform="translate(4.4827159,-0.74711903)"><tspan
           sodipodi:role="line"
           x="57.443359"
           y="33.330985"><tspan
             style="font-style:normal;font-variant:normal;font-weight:bold;font-stretch:normal;font-family:Arial;-inkscape-font-specification:'Arial Bold';font-variant-ligatures:normal;font-variant-caps:normal;font-variant-numeric:normal;font-variant-east-asian:normal;fill:#0d0d0d;fill-opacity:1">DOWNLOAD</tspan></tspan></text>
    </g>
    <g
       id="g918"
       transform="matrix(0.08878405,0,0,0.08878405,-3.4378029,2.5506987)"
       style="stroke-width:2.98008">
      <path
         id="path914"
         d="M 315.459,0 H 121.812 C 93.521,0 70.496,23.041 70.496,51.315 v 189.754 h -5.012 c -11.418,0 -20.677,9.251 -20.677,20.679 v 125.404 c 0,11.427 9.259,20.677 20.677,20.677 h 5.012 v 22.995 c 0,28.305 23.025,51.315 51.316,51.315 h 264.221 c 28.275,0 51.3,-23.011 51.3,-51.315 V 121.449 Z M 94.507,283.228 H 120.7 l 8.518,29.029 c 2.711,10.057 5.423,20.9 7.361,31.097 h 0.386 c 2.452,-10.071 5.415,-21.546 8.258,-31.222 l 9.291,-28.904 h 25.673 l 4.775,86.966 h -19.227 l -1.291,-33.286 c -0.387,-10.466 -0.773,-23.105 -0.773,-35.745 h -0.385 c -2.711,11.095 -6.32,23.483 -9.677,33.68 l -10.584,33.933 h -15.351 l -9.291,-33.68 c -2.844,-10.197 -5.806,-22.584 -7.871,-33.933 h -0.261 c -0.512,11.743 -0.906,25.153 -1.551,35.997 l -1.546,33.034 H 88.959 Z M 386.033,450.713 H 121.812 c -10.955,0 -19.874,-8.92 -19.874,-19.889 v -22.995 h 246.31 c 11.418,0 20.678,-9.25 20.678,-20.677 V 261.748 c 0,-11.428 -9.26,-20.679 -20.678,-20.679 H 101.938 V 51.315 c 0,-10.938 8.919,-19.858 19.874,-19.858 l 181.89,-0.19 V 98.5 c 0,19.638 15.934,35.587 35.585,35.587 l 65.864,-0.189 0.741,296.925 c -10e-4,10.97 -8.905,19.89 -19.859,19.89 z M 200.125,370.194 v -85.815 c 6.06,-1.024 14.578,-1.796 26.58,-1.796 12.126,0 20.772,2.315 26.579,6.965 5.548,4.382 9.291,11.615 9.291,20.127 0,8.51 -2.837,15.745 -7.998,20.646 -6.714,6.32 -16.642,9.157 -28.259,9.157 -2.584,0 -4.901,-0.128 -6.714,-0.379 v 31.096 h -19.479 z m 93.332,-37.29 h -7.998 v -14.072 h 7.612 c 6.579,-0.128 14.964,-2.569 14.964,-9.677 0,-5.029 -4.128,-8.764 -12.388,-8.764 -6.839,0 -14.058,2.963 -17.549,5.027 l -3.995,-14.2 c 5.027,-3.215 15.098,-6.32 25.933,-6.32 17.935,0 27.873,9.426 27.873,20.898 0,8.904 -5.029,15.87 -15.351,19.496 v 0.252 c 10.062,1.813 18.186,9.426 18.186,20.393 0,14.832 -13.033,25.676 -34.316,25.676 -10.844,0 -20.009,-2.838 -24.91,-5.942 l 4.003,-14.704 c 3.483,1.813 11.482,5.169 19.479,5.169 10.197,0 15.359,-4.917 15.359,-11.237 0.002,-8.258 -8.258,-11.995 -16.902,-11.995 z"
         inkscape:connector-curvature="0"
         style="stroke-width:2.98008" />
      <path
         id="path916"
         d="m 243.095,310.194 c 0,-8.007 -5.555,-12.782 -15.359,-12.782 -4.002,0 -6.713,0.395 -8.132,0.773 v 25.69 c 1.679,0.378 3.744,0.504 6.588,0.504 10.449,0 16.903,-5.279 16.903,-14.185 z"
         inkscape:connector-curvature="0"
         style="stroke-width:2.98008" />
    </g>
  </g>
</svg>
