<?xml version="1.0" encoding="UTF-8" standalone="no"?>
<svg
   xmlns:dc="http://purl.org/dc/elements/1.1/"
   xmlns:cc="http://creativecommons.org/ns#"
   xmlns:rdf="http://www.w3.org/1999/02/22-rdf-syntax-ns#"
   xmlns:svg="http://www.w3.org/2000/svg"
   xmlns="http://www.w3.org/2000/svg"
   xmlns:sodipodi="http://sodipodi.sourceforge.net/DTD/sodipodi-0.dtd"
   xmlns:inkscape="http://www.inkscape.org/namespaces/inkscape"
   inkscape:version="1.0beta2 (2b71d25, 2019-12-03)"
   sodipodi:docname="sfsLogo.svg"
   viewBox="0 0 800 378.66666"
   height="378.66666"
   width="800"
   id="svg901"
   version="1.1">
  <metadata
     id="metadata907">
    <rdf:RDF>
      <cc:Work
         rdf:about="">
        <dc:format>image/svg+xml</dc:format>
        <dc:type
           rdf:resource="http://purl.org/dc/dcmitype/StillImage" />
        <dc:title></dc:title>
      </cc:Work>
    </rdf:RDF>
  </metadata>
  <defs
     id="defs905" />
  <sodipodi:namedview
     inkscape:current-layer="g909"
     inkscape:window-maximized="1"
     inkscape:window-y="23"
     inkscape:window-x="0"
     inkscape:cy="106.57837"
     inkscape:cx="524.1022"
     inkscape:zoom="1.4643387"
     showgrid="false"
     id="namedview903"
     inkscape:window-height="1155"
     inkscape:window-width="1920"
     inkscape:pageshadow="2"
     inkscape:pageopacity="0"
     guidetolerance="10"
     gridtolerance="10"
     objecttolerance="10"
     borderopacity="1"
     inkscape:document-rotation="0"
     bordercolor="#666666"
     pagecolor="#ffffff" />
  <g
     id="g909"
     inkscape:label="Image"
     inkscape:groupmode="layer">
    <path
       inkscape:connector-curvature="0"
       id="path913"
       d="M 33.176377,354.15922 C 17.720908,348.63621 7.9177128,335.62578 8.0316473,320.78809 c 0.044082,-5.74074 5.4014767,-18.18022 10.7241047,-24.90058 13.254719,-16.73543 40.579613,-25.06821 63.029169,-19.22085 4.223186,1.1 7.949246,2 8.280132,2 0.330888,0 0.601614,-31.13086 0.601614,-69.1797 v -69.1797 L 83,139.3682 C 42.982905,134.46666 11.130237,100.2161 8.3698707,59.119858 7.6717995,48.727 7.7937257,48.085062 11.092262,44.786525 c 2.928591,-2.928591 4.627102,-3.449675 11.180465,-3.43004 31.413332,0.09412 61.415098,19.287198 76.430574,48.895064 2.161269,4.261647 3.937189,6.816711 3.946479,5.67792 0.0307,-3.769608 10.59057,-24.011184 16.60196,-31.823433 18.65129,-24.238751 46.59226,-39.192712 76.65199,-41.024032 13.04219,-0.794564 13.19802,-0.768138 16.8185,2.852342 3.59053,3.590539 3.64066,3.867428 2.87144,15.859996 -1.02026,15.906253 -3.61919,25.523778 -10.86472,40.205657 -15.22444,30.849831 -42.15943,50.418701 -79.21003,57.547881 l -5.81441,1.11878 6.36989,8.66667 c 3.50344,4.76667 10.26832,13.14865 15.03305,18.62663 18.65482,21.44726 24.73044,35.17926 24.79454,56.04004 0.0436,14.1918 -1.68491,22.6975 -7.5868,37.33333 -6.64718,16.48404 -11.856,21.44647 -18.25963,17.39588 -1.66288,-1.05184 -1.52464,-2.07053 0.95473,-7.03497 4.59639,-9.20339 7.27456,-23.06139 6.76935,-35.02758 -0.38211,-9.05052 -1.21312,-12.26489 -5.48471,-21.215 -5.91865,-12.40116 -14.32766,-24.46505 -22.75754,-32.64885 l -6.04016,-5.86385 -0.47223,64.53052 c -0.54487,74.45837 -0.0769,71.41147 -13.162903,85.69261 -20.629774,22.51376 -48.105128,33.63692 -66.68572,26.99713 z M 128.70537,105.11137 c 14.47496,-18.980818 42.64799,-43.354212 59.96956,-51.881591 8.75011,-4.307667 10.21114,-6.28127 6.76634,-9.1402 -3.7424,-3.105918 -26.08351,10.782547 -42.5925,26.477852 C 141.47777,81.377979 120,107.9714 120,111.24023 c 0,2.71331 4.23721,-0.26982 8.70537,-6.12886 z M 73.957468,100.53746 C 61.161967,82.606169 40.530657,64.067634 29.666667,60.739371 c -5.983267,-1.833019 -3.015822,2.684651 5.39621,8.215242 11.796279,7.755607 29.745682,23.802875 37.484944,33.512587 3.601303,4.51821 6.82368,7.93907 7.16084,7.60192 0.337159,-0.33716 -2.250877,-4.62641 -5.751193,-9.53166 z M 211.55072,296.73674 c -4.28044,-1.75999 -8.94939,-4.25589 -10.37545,-5.54647 -2.54236,-2.3008 -2.47019,-2.47101 3.70662,-8.74213 5.46143,-5.5448 6.57566,-6.15445 8.37547,-4.58268 10.46757,9.14139 26.74264,7.61908 26.74264,-2.5014 0,-4.06665 -2.73545,-5.89688 -16.91983,-11.3206 -12.26298,-4.68905 -18.37042,-10.23761 -19.82946,-18.01496 -2.03978,-10.87294 2.9751,-20.59596 13.38408,-25.94946 9.0456,-4.6523 24.91024,-4.75026 34.29733,-0.21175 9.47316,4.58009 9.65165,5.28577 3.21401,12.70645 l -5.66416,6.5291 -4.35269,-3.21808 c -3.16789,-2.34214 -6.08117,-3.2181 -10.70273,-3.2181 -7.51372,0 -10.75988,2.25134 -10.75988,7.46235 0,4.26604 3.00658,6.29663 15.88208,10.72645 11.42516,3.93083 16.8318,8.10004 19.47313,15.01626 4.67371,12.23794 -0.28227,24.22354 -12.59568,30.46161 -9.70516,4.91669 -22.52737,5.06938 -33.87548,0.40341 z m 456.89255,0.79516 c -17.03566,-5.88709 -27.10994,-20.62118 -27.10994,-39.64952 0,-16.98989 7.64675,-29.58393 22.35739,-36.8222 8.22005,-4.04462 9.93688,-4.39161 21.61921,-4.36942 10.93711,0.0208 13.75139,0.51812 20.37316,3.60042 4.22571,1.96698 8.05696,4.55063 8.51392,5.74143 0.55502,1.44633 -1.05221,4.08379 -4.84132,7.9446 l -5.67214,5.77951 -6.04036,-3.2117 c -22.82302,-12.13512 -44.79068,12.33316 -31.9897,35.63112 3.80467,6.92456 10.85886,10.49052 20.75234,10.49052 11.70382,0 12.26084,-0.4002 12.26084,-8.80932 v -7.19068 h -8 -8 v -8 -8 h 16.69969 16.69969 l -0.36636,21.66667 -0.36636,21.66666 -8.66666,2.9528 c -11.10842,3.78471 -28.19802,4.04364 -38.2234,0.57911 z m 76.89006,0.34797 c -3.3,-1.18262 -8.0056,-3.66233 -10.45689,-5.51048 l -4.45688,-3.36025 6.38091,-6.47832 c 5.53278,-5.61726 6.65684,-6.23736 8.45689,-4.66536 7.31923,6.39192 19.41033,8.13351 24.07597,3.46787 5.72464,-5.72464 2.10146,-11.5696 -9.50621,-15.33555 -9.94956,-3.228 -18.69228,-8.17008 -21.709,-12.27165 -3.18377,-4.32872 -4.26059,-14.56773 -2.19141,-20.83737 4.82178,-14.61018 27.72614,-20.94116 46.5167,-12.85768 10.01826,4.30974 10.2275,5.0696 3.38904,12.30734 l -5.96321,6.3114 -4.04632,-2.99157 c -2.86029,-2.11471 -5.90761,-2.99159 -10.39637,-2.99159 -7.51514,0 -10.75988,2.2514 -10.75988,7.46586 0,4.6249 2.6683,6.4792 15.18441,10.55218 16.62076,5.40871 23.80784,15.29659 20.81745,28.64031 -1.86938,8.34156 -4.59284,12.12752 -11.73488,16.31304 -7.70162,4.51345 -24.19153,5.61366 -33.60032,2.24182 z m -477.10894,-0.9257 c 0.24325,-1.00572 7.64228,-19.03716 16.44228,-40.06987 l 16,-38.24128 9.96456,0.34515 9.96456,0.34516 16.36877,39.22817 c 9.00283,21.5755 16.36877,39.44976 16.36877,39.72059 0,0.27082 -4.86224,0.31816 -10.80497,0.1052 l -10.80497,-0.38726 -2.94388,-7.33333 -2.94388,-7.33333 h -15.7188 -15.71879 l -2.9436,7.33333 -2.94359,7.33333 -10.36437,0.39139 c -8.24641,0.3114 -10.27399,0.0177 -9.92209,-1.43721 z m 51.11468,-32.62084 c -0.52044,-1.28333 -2.02134,-5.33333 -3.33534,-9 -4.09265,-11.42039 -5.39098,-14.39052 -6.0169,-13.76461 -0.33287,0.33288 -2.65407,6.11609 -5.15823,12.85158 l -4.55299,12.24636 h 10.00484 c 9.00002,0 9.90982,-0.23434 9.05862,-2.33333 z m 47.3276,-5.7564 V 218.4872 l 21.66666,0.42306 c 23.59908,0.4608 29.21416,1.96407 34.67959,9.28442 5.55927,7.44602 5.75061,20.2975 0.42005,28.21168 -4.86817,7.22769 -12.98414,10.71904 -26.40953,11.36092 l -11.69011,0.5589 v 15.17024 15.17024 H 376 366.66667 Z m 38.41525,-9.29555 c 6.29495,-5.86462 2.07695,-13.77768 -8.16259,-15.31318 -10.33258,-1.54947 -10.8675,-1.12178 -11.31358,9.04558 L 385.21149,252 h 8.47618 c 6.68714,0 9.09206,-0.5738 11.39425,-2.71862 z m 37.58475,9.38528 v -40 h 10 10 V 250 281.33333 H 478 493.33333 v 8.66666 8.66667 H 468 442.66667 Z m 65.33333,0 v -40 h 9.33333 9.33334 v 40 40 H 517.33333 508 Z m 41.33333,-0.0519 v -40.05192 l 11.57895,0.38525 11.57895,0.38524 15.42105,25.03669 15.42105,25.0367 0.36212,-25.37003 0.36214,-25.37003 h 9.30453 9.30455 v 40 40 l -11,-0.0205 -11,-0.0205 -16,-26.02673 -16,-26.02674 -0.36152,26.04722 -0.36152,26.04728 h -9.30515 -9.30515 v -40.0519 z M 628,209.33333 c -3.04373,-3.04373 -3.37252,-5.42748 -1.06667,-7.73333 2.58075,-2.58075 6.17487,-1.84978 8.52262,1.73333 1.20124,1.83333 2.91048,3.33333 3.79832,3.33333 2.43974,0 6.72409,-5.21204 10.51665,-12.79386 C 652.89332,187.63073 668,139.87182 668,136.2426 c 0,-0.95507 -2.14495,-1.57594 -5.44444,-1.57594 -7.37988,0 -6.27533,-3.192 1.29669,-3.74733 5.33094,-0.39097 5.79262,-0.76188 8.29803,-6.66667 7.14527,-16.83999 11.85105,-23.04626 20.51639,-27.058178 6.53101,-3.023757 10.27468,-3.143746 15.39954,-0.493577 4.36984,2.259731 5.32819,7.148655 1.95076,9.951665 -2.66601,2.21261 -5.7766,0.81993 -7.33732,-3.28507 -1.7303,-4.551079 -8.95021,-4.713603 -13.10136,-0.29492 -3.05697,3.254 -8.64718,16.00537 -10.19754,23.26075 l -0.92596,4.33333 h 6.21705 c 8.35007,0 7.37972,3.09715 -1.25321,4 l -6.3746,0.66667 -5.30459,17.33333 c -7.39411,24.16103 -12.30591,36.40008 -18.37923,45.7967 C 645.567,210.52096 634.10185,215.43518 628,209.33333 Z M 309.63719,186.49914 c -14.5261,-1.82202 -26.78162,-10.69357 -32.82964,-23.76473 -4.18102,-9.03612 -3.97855,-27.60615 0.39844,-36.54548 4.2238,-8.62647 10.9495,-15.12093 20.01204,-19.32396 9.46837,-4.39126 26.19758,-4.88777 37.07562,-1.10038 9.30436,3.23948 19.19159,12.3032 23.12198,21.19617 4.56557,10.3301 4.4461,25.6346 -0.2796,35.82121 -8.22555,17.73076 -25.6925,26.45236 -47.49884,23.71717 z m 18.92945,-20.18774 c 10.25237,-5.83423 14.32089,-20.56238 8.92572,-32.3114 -2.94523,-6.4138 -5.88393,-9.18548 -12.80515,-12.07735 -10.12484,-4.23042 -22.4054,0.52181 -27.25928,10.54859 -6.67404,13.78672 -0.94154,31.0727 11.9054,35.90005 4.83108,1.81532 14.18367,0.81365 19.23331,-2.05989 z m -115.23331,18.23384 c -3.3,-1.18191 -8.0056,-3.66103 -10.45689,-5.50918 l -4.45688,-3.36025 6.32344,-6.41997 6.32343,-6.41998 4.523,3.44986 C 224.69481,173.23074 240,171.36036 240,163.3026 c 0,-4.7898 -3.8414,-7.92204 -13.76621,-11.2248 -15.01511,-4.99671 -21.83864,-11.2399 -23.17511,-21.20406 -2.90029,-21.62328 23.03212,-34.584796 47.89933,-23.941 9.90246,4.2385 10.19403,5.33651 3.3427,12.58789 l -5.9417,6.28864 -3.50124,-2.75407 c -7.62153,-5.9951 -20.01881,-4.86211 -21.73773,1.98662 -1.32669,5.28593 0.97757,7.30857 13.66241,11.99262 17.84998,6.59134 24.55719,14.71801 22.64906,27.4423 -1.1356,7.5727 -4.88414,13.34867 -11.50788,17.73207 -4.75074,3.14388 -7.11064,3.70675 -17.05206,4.06711 -8.14637,0.29529 -13.30204,-0.21348 -17.53824,-1.73068 z m 284.4254,-0.35271 c -9.79641,-3.38523 -18.18514,-10.74233 -22.66078,-19.87407 -3.22142,-6.57269 -3.74883,-9.2501 -3.73983,-18.98513 0.0133,-14.37419 3.49643,-22.85758 12.83068,-31.24987 13.37932,-12.02915 36.30171,-14.624198 53.23373,-6.02659 8.11938,4.12279 8.299,5.20486 2.05568,12.38348 l -5.60124,6.44035 -6.60514,-3.54887 c -12.44755,-6.68791 -26.84863,-2.41074 -32.77604,9.73459 -3.63592,7.45004 -3.11479,21.00127 1.02241,26.58588 6.0784,8.20494 16.89699,12.16258 27.14847,9.93143 4.6051,-1.00227 4.67194,-1.11615 5.06653,-8.63304 l 0.39988,-7.61736 h -7.39988 -7.39987 v -8.04104 -8.04104 l 16.33334,0.37437 L 546,138 v 21.33333 21.33333 l -8.66667,2.9528 c -11.19412,3.81391 -29.43172,4.078 -39.5746,0.57307 z m 76.90794,0.35271 c -3.3,-1.18191 -8.0056,-3.66103 -10.4569,-5.50918 l -4.45688,-3.36025 6.32344,-6.41997 6.32343,-6.41998 4.523,3.44986 c 9.10539,6.94502 24.41057,5.07464 24.41057,-2.98312 0,-4.7898 -3.8414,-7.92204 -13.76621,-11.2248 -15.01511,-4.99671 -21.83864,-11.2399 -23.17511,-21.20406 -2.90029,-21.62328 23.03212,-34.584796 47.89934,-23.941 9.90245,4.2385 10.19402,5.33651 3.34269,12.58789 l -5.94169,6.28864 -3.64811,-2.86959 c -7.65823,-6.02397 -19.84925,-4.83702 -21.59087,2.10214 -1.32669,5.28593 0.97758,7.30857 13.66242,11.99262 17.84997,6.59134 24.55718,14.71801 22.64905,27.4423 -1.1356,7.5727 -4.88413,13.34867 -11.50788,17.73207 -4.75073,3.14388 -7.11064,3.70675 -17.05205,4.06711 -8.14638,0.29529 -13.30204,-0.21348 -17.53824,-1.73068 z m -196,-39.1535 v -40.05841 l 11.66666,0.0486 11.66667,0.0486 15.33333,25.23394 15.33334,25.23394 0.36212,-25.28256 0.36213,-25.28255 H 442.69545 452 v 40 40 l -11,-0.0541 -11,-0.0541 -15.86381,-25.94588 c -8.7251,-14.27021 -16.15738,-25.94585 -16.51618,-25.94585 -0.35881,0 -0.42009,11.55 -0.1362,25.66667 L 398,184.66666 l -9.66667,0.39175 -9.66666,0.39175 z m 317.73204,29.93746 c -8.76199,-6.13715 -6.21516,-27.09324 4.82016,-39.66179 11.7195,-13.34778 29.4478,-10.37555 29.4478,4.93707 0,22.51733 -21.12879,43.92774 -34.26796,34.72472 z m 15.98125,-9.69031 c 5.09911,-4.96924 12.62023,-18.60483 13.03875,-23.63889 0.44929,-5.40408 -0.14674,-7.27235 -2.76754,-8.67496 -7.81469,-4.1823 -23.60197,13.47492 -26.11844,29.21205 -1.73561,10.85393 6.28215,12.42327 15.84723,3.1018 z m 30.42967,-1.30556 c 6.55734,-19.25129 9.14597,-29.53672 7.66428,-30.45247 -0.7391,-0.45678 -3.62696,1.00428 -6.41748,3.2468 -5.83354,4.68796 -7.8199,4.15763 -4.08315,-1.09013 3.31381,-4.65384 13.51816,-10.10715 16.65805,-8.90225 1.94334,0.74572 2.2396,1.94119 1.62446,6.55505 -0.4138,3.10365 -1.11588,7.143 -1.56018,8.97633 -0.73705,3.04135 -0.6569,3.11644 0.91495,0.8572 9.86565,-14.17992 16.19917,-19.00147 20.39064,-15.52286 2.62205,2.17611 2.56683,7.86472 -0.0863,8.88278 -1.14676,0.44007 -3.59677,0.11134 -5.44445,-0.73056 -2.99719,-1.3656 -3.77543,-1.08533 -7.2172,2.5991 -5.87693,6.29128 -12.58708,18.24249 -15.85999,28.24768 -2.72233,8.32212 -3.2308,9 -6.75082,9 h -3.80675 l 3.97387,-11.66667 z"
       style="fill:#ffffff;stroke-width:1;fill-opacity:1" />
  </g>
</svg>
